<?xml version="1.0" encoding="UTF-8" standalone="no"?><!-- Generator: Gravit.io --><svg xmlns="http://www.w3.org/2000/svg" xmlns:xlink="http://www.w3.org/1999/xlink" style="isolation:isolate" viewBox="0 0 1280 800" width="1280pt" height="800pt"><defs><clipPath id="_clipPath_gymjvkKdJRUznJ02HMprfSrgdnySSucE"><rect width="1280" height="800"/></clipPath></defs><g clip-path="url(#_clipPath_gymjvkKdJRUznJ02HMprfSrgdnySSucE)"><defs><filter id="gZbWpGcFCMU82ZO4vkC2ZhujwuyvUP2O" x="-200%" y="-200%" width="400%" height="400%" filterUnits="objectBoundingBox" color-interpolation-filters="sRGB"><feGaussianBlur xmlns="http://www.w3.org/2000/svg" in="SourceGraphic" stdDeviation="10.73402265709757"/><feOffset xmlns="http://www.w3.org/2000/svg" dx="0" dy="0" result="pf_100_offsetBlur"/><feFlood xmlns="http://www.w3.org/2000/svg" flood-color="#000000" flood-opacity="0.5"/><feComposite xmlns="http://www.w3.org/2000/svg" in2="pf_100_offsetBlur" operator="in" result="pf_100_dropShadow"/><feBlend xmlns="http://www.w3.org/2000/svg" in="SourceGraphic" in2="pf_100_dropShadow" mode="normal" result="_out_r8BTSzX3HYG6na4wCHSfbphXfpTKjjvV"/><feOffset xmlns="http://www.w3.org/2000/svg" in="_out_r8BTSzX3HYG6na4wCHSfbphXfpTKjjvV" dx="0" dy="0"/><feGaussianBlur xmlns="http://www.w3.org/2000/svg" stdDeviation="2.146804531419514" result="pf_101_offsetBlur"/><feComposite xmlns="http://www.w3.org/2000/svg" in="_out_r8BTSzX3HYG6na4wCHSfbphXfpTKjjvV" in2="pf_101_offsetBlur" result="pf_101_inverse" operator="out"/><feFlood xmlns="http://www.w3.org/2000/svg" flood-color="#000000" flood-opacity="0.5" result="pf_101_color"/><feComposite xmlns="http://www.w3.org/2000/svg" in="pf_101_color" in2="pf_101_inverse" operator="in" result="pf_101_shadow"/><feComposite xmlns="http://www.w3.org/2000/svg" in="pf_101_shadow" in2="_out_r8BTSzX3HYG6na4wCHSfbphXfpTKjjvV" operator="over" result="_out_ze556Yymv3KuiRNSZVmgZadsPPil0KIp"/><feMerge><feMergeNode in="_out_ze556Yymv3KuiRNSZVmgZadsPPil0KIp"/></feMerge></filter></defs><g filter="url(#gZbWpGcFCMU82ZO4vkC2ZhujwuyvUP2O)"><rect x="0" y="0" width="1280" height="800" transform="matrix(1,0,0,1,0,0)" fill="rgb(235,235,235)"/></g><path d=" M 1022.863 495.873 C 1021.16 495.873 1019.67 497.573 1019.67 499.515 C 1019.67 503.404 1021.358 506.769 1021.999 508.469 C 1022.637 508.221 1023.487 508.012 1024.128 508.012 C 1023.911 506.799 1023.312 504.856 1023.527 503.157 C 1025.018 502.671 1026.057 501.215 1026.057 499.515 C 1026.057 497.573 1024.566 495.873 1022.863 495.873 Z  M 1031.379 495.873 C 1027.547 495.873 1027.345 501.44 1026.921 508.241 C 1027.77 508.486 1028.609 508.743 1029.25 509.226 C 1029.25 506.551 1029.665 504.626 1030.515 502.929 L 1031.179 502.929 C 1032.037 503.048 1032.899 502.743 1033.548 502.091 C 1034.196 501.438 1034.569 500.501 1034.572 499.515 C 1034.572 497.573 1033.082 495.873 1031.379 495.873 Z  M 997.316 510.29 C 987.261 510.29 979.085 519.612 979.085 531.076 C 979.085 537.801 981.923 543.737 986.273 547.539 C 982.413 547.816 979.22 548.081 979.22 549.285 C 979.22 551.713 989.439 554.14 1004.767 554.14 C 1027.015 554.14 1028.177 536.102 1028.185 526.6 C 1030.79 525.207 1032.451 522.218 1032.443 518.937 C 1032.443 514.245 1029.107 510.44 1024.992 510.44 C 1020.877 510.44 1017.541 514.245 1017.541 518.937 C 1017.541 523.375 1016.825 528.098 1015.478 532.29 C 1015.495 531.882 1015.546 531.484 1015.546 531.076 C 1015.546 519.61 1007.371 510.287 997.316 510.287 L 997.316 510.29 Z  M 997.316 515.449 C 1000.952 515.442 1004.441 517.087 1007.013 520.019 C 1009.584 522.951 1011.027 526.93 1011.022 531.076 C 1011.022 536.767 1008.335 541.698 1004.367 544.429 C 1005.923 541.88 1006.896 538.947 1006.896 535.932 C 1006.896 531.285 1005.516 527.794 1003.502 525.614 C 1001.729 523.677 999.371 522.59 996.915 522.579 C 992.775 522.579 989.864 526.24 989.864 530.091 C 989.864 534.082 992.875 537.146 996.251 537.146 C 997.018 537.156 997.731 536.699 998.123 535.942 C 998.505 535.184 998.505 534.252 998.123 533.495 C 997.731 532.737 997.015 532.281 996.251 532.29 C 994.946 532.29 994.122 531.436 994.122 530.091 C 994.122 528.6 994.671 527.435 996.918 527.435 C 997.988 527.435 999.445 527.881 1000.575 529.105 C 1001.706 530.326 1002.638 532.329 1002.638 535.932 C 1002.638 538.19 1001.616 541.016 999.911 543.14 C 999.1 544.168 998.13 545.017 997.05 545.643 C 996.958 545.692 996.883 545.748 996.783 545.796 C 996.677 545.852 996.56 545.898 996.451 545.947 C 995.928 546.155 995.387 546.316 994.789 546.478 C 988.408 545.141 983.612 538.748 983.612 531.076 C 983.606 526.93 985.048 522.951 987.619 520.018 C 990.19 517.085 993.679 515.44 997.316 515.446 L 997.316 515.449 Z " fill="rgb(195,207,217)"/><path d=" M 1069.104 495.873 C 1070.807 495.873 1072.297 497.573 1072.297 499.515 C 1072.297 503.404 1070.609 506.769 1069.968 508.469 C 1069.329 508.221 1068.48 508.012 1067.839 508.012 C 1068.056 506.799 1068.654 504.856 1068.439 503.157 C 1066.949 502.671 1065.91 501.215 1065.91 499.515 C 1065.91 497.573 1067.4 495.873 1069.104 495.873 Z  M 1060.588 495.873 C 1064.42 495.873 1064.622 501.44 1065.046 508.241 C 1064.196 508.486 1063.358 508.743 1062.717 509.226 C 1062.717 506.551 1062.302 504.626 1061.452 502.929 L 1060.788 502.929 C 1059.93 503.048 1059.068 502.743 1058.419 502.091 C 1057.771 501.438 1057.398 500.501 1057.394 499.515 C 1057.394 497.573 1058.885 495.873 1060.588 495.873 Z  M 1094.651 510.29 C 1104.706 510.29 1112.881 519.612 1112.881 531.076 C 1112.881 537.801 1110.043 543.737 1105.694 547.539 C 1109.554 547.816 1112.747 548.081 1112.747 549.285 C 1112.747 551.713 1102.528 554.14 1087.2 554.14 C 1064.952 554.14 1063.79 536.102 1063.781 526.6 C 1061.176 525.207 1059.516 522.218 1059.523 518.937 C 1059.523 514.245 1062.859 510.44 1066.975 510.44 C 1071.09 510.44 1074.426 514.245 1074.426 518.937 C 1074.426 523.375 1075.141 528.098 1076.489 532.29 C 1076.472 531.882 1076.421 531.484 1076.421 531.076 C 1076.421 519.61 1084.596 510.287 1094.651 510.287 L 1094.651 510.29 Z  M 1094.651 515.449 C 1091.015 515.442 1087.525 517.087 1084.954 520.019 C 1082.382 522.951 1080.94 526.93 1080.945 531.076 C 1080.945 536.767 1083.632 541.698 1087.6 544.429 C 1086.044 541.88 1085.071 538.947 1085.071 535.932 C 1085.071 531.285 1086.45 527.794 1088.464 525.614 C 1090.237 523.677 1092.596 522.59 1095.051 522.579 C 1099.192 522.579 1102.102 526.24 1102.102 530.091 C 1102.102 534.082 1099.092 537.146 1095.715 537.146 C 1094.949 537.156 1094.236 536.699 1093.844 535.942 C 1093.462 535.184 1093.462 534.252 1093.844 533.495 C 1094.236 532.737 1094.951 532.281 1095.715 532.29 C 1097.02 532.29 1097.844 531.436 1097.844 530.091 C 1097.844 528.6 1097.295 527.435 1095.049 527.435 C 1093.978 527.435 1092.522 527.881 1091.392 529.105 C 1090.261 530.326 1089.329 532.329 1089.329 535.932 C 1089.329 538.19 1090.35 541.016 1092.056 543.14 C 1092.866 544.168 1093.836 545.017 1094.917 545.643 C 1095.009 545.692 1095.083 545.748 1095.183 545.796 C 1095.29 545.852 1095.407 545.898 1095.515 545.947 C 1096.039 546.155 1096.58 546.316 1097.178 546.478 C 1103.559 545.141 1108.355 538.748 1108.355 531.076 C 1108.361 526.93 1106.919 522.951 1104.348 520.018 C 1101.776 517.085 1098.287 515.44 1094.651 515.446 L 1094.651 515.449 Z " fill="rgb(195,207,217)"/><path d=" M 700.214 303 C 696.899 303 694.032 304.236 692.244 306.239 C 690.461 308.243 689.714 310.84 689.714 313.643 L 689.714 315.115 L 694.214 315.115 L 694.214 313.643 C 694.214 311.518 694.799 309.847 695.76 308.763 C 696.72 307.681 698.028 307.038 700.214 307.038 C 702.404 307.038 703.706 307.644 704.667 308.721 C 705.627 309.798 706.214 311.493 706.214 313.643 L 706.214 315.115 L 710.714 315.115 L 710.714 313.643 C 710.714 310.825 709.923 308.2 708.135 306.197 C 706.349 304.194 703.524 303 700.214 303 Z  M 689.714 316.462 C 687.229 316.462 685.214 318.27 685.214 320.5 L 685.214 333.962 C 685.214 336.192 687.229 338 689.714 338 L 710.714 338 C 713.199 338 715.214 336.192 715.214 333.962 L 715.214 320.5 C 715.214 318.27 713.199 316.462 710.714 316.462 L 689.714 316.462 Z  M 700.214 323.192 C 701.871 323.192 703.214 324.398 703.214 325.885 C 703.214 326.878 702.611 327.73 701.714 328.199 L 701.714 331.269 C 701.714 332.01 701.039 332.615 700.214 332.615 C 699.389 332.615 698.714 332.01 698.714 331.269 L 698.714 328.199 C 697.817 327.73 697.214 326.879 697.214 325.885 C 697.214 324.398 698.557 323.192 700.214 323.192 Z " fill="rgb(195,207,217)"/><path d=" M 943.786 303 C 940.471 303 937.605 304.236 935.817 306.239 C 934.033 308.243 933.286 310.84 933.286 313.643 L 933.286 315.115 L 937.786 315.115 L 937.786 313.643 C 937.786 311.518 938.371 309.847 939.333 308.763 C 940.293 307.681 941.601 307.038 943.786 307.038 C 945.976 307.038 947.278 307.644 948.24 308.721 C 949.2 309.798 949.786 311.493 949.786 313.643 L 949.786 315.115 L 954.286 315.115 L 954.286 313.643 C 954.286 310.825 953.496 308.2 951.708 306.197 C 949.921 304.194 947.097 303 943.786 303 Z  M 933.286 316.462 C 930.801 316.462 928.786 318.27 928.786 320.5 L 928.786 333.962 C 928.786 336.192 930.801 338 933.286 338 L 954.286 338 C 956.771 338 958.786 336.192 958.786 333.962 L 958.786 320.5 C 958.786 318.27 956.771 316.462 954.286 316.462 L 933.286 316.462 Z  M 943.786 323.192 C 945.443 323.192 946.786 324.398 946.786 325.885 C 946.786 326.878 946.183 327.73 945.286 328.199 L 945.286 331.269 C 945.286 332.01 944.611 332.615 943.786 332.615 C 942.961 332.615 942.286 332.01 942.286 331.269 L 942.286 328.199 C 941.389 327.73 940.786 326.879 940.786 325.885 C 940.786 324.398 942.129 323.192 943.786 323.192 Z " fill="rgb(195,207,217)"/><path d=" M 534.665 504.861 C 522.947 504.861 513.339 513.723 513.339 524.533 L 513.339 593.385 L 520.448 593.385 L 520.448 524.533 C 520.448 517.31 526.835 511.418 534.665 511.418 L 545.328 511.418 C 551.155 511.433 556.385 514.719 558.533 519.716 C 552.935 522.444 541.774 528.926 541.774 537.647 L 541.774 540.926 L 555.991 540.926 C 555.991 544.548 559.174 547.483 563.1 547.483 C 567.026 547.483 570.209 544.548 570.209 540.926 L 584.426 540.926 L 584.426 537.647 C 584.426 527.582 569.583 520.5 565.709 518.808 C 563.029 510.762 554.879 504.861 545.328 504.861 L 534.665 504.861 Z  M 509.785 599.942 C 507.822 599.942 506.23 601.41 506.23 603.221 L 506.23 636.008 L 502.676 636.008 L 502.676 642.565 L 531.111 642.565 L 531.111 636.008 L 527.557 636.008 L 527.557 603.221 C 527.557 601.41 525.965 599.942 524.002 599.942 L 509.785 599.942 Z " fill="rgb(189,194,198)"/><path d=" M 871.922 436.008 C 883.641 436.008 893.248 444.87 893.248 455.68 L 893.248 524.533 L 886.139 524.533 L 886.139 455.68 C 886.139 448.457 879.752 442.566 871.922 442.566 L 861.259 442.566 C 855.432 442.58 850.202 445.867 848.055 450.864 C 853.653 453.592 864.813 460.074 864.813 468.795 L 864.813 472.074 L 850.596 472.074 C 850.596 475.695 847.413 478.631 843.487 478.631 C 839.561 478.631 836.379 475.695 836.379 472.074 L 822.161 472.074 L 822.161 468.795 C 822.161 458.729 837.004 451.647 840.878 449.956 C 843.558 441.91 851.708 436.008 861.259 436.008 L 871.922 436.008 Z  M 896.802 531.09 C 898.765 531.09 900.357 532.558 900.357 534.369 L 900.357 567.156 L 903.911 567.156 L 903.911 573.713 L 875.476 573.713 L 875.476 567.156 L 879.031 567.156 L 879.031 534.369 C 879.031 532.558 880.622 531.09 882.585 531.09 L 896.802 531.09 Z " fill="rgb(189,194,198)"/><path d=" M 604.145 621.571 C 603.132 620.674 601.348 620.453 599.716 621.127 C 597.708 621.957 596.689 623.821 597.438 625.294 C 597.579 625.57 597.771 625.811 598.003 626.018 C 599.016 626.915 600.8 627.136 602.432 626.461 C 604.44 625.632 605.459 623.767 604.71 622.295 C 604.572 622.024 604.38 621.778 604.145 621.571 Z  M 599.179 617.233 C 599.215 617.264 599.249 617.297 599.28 617.332 C 600.024 618.129 599.673 619.477 598.491 620.348 C 597.362 621.181 595.882 621.272 595.104 620.583 C 595.068 620.552 595.034 620.519 595.003 620.484 C 594.259 619.688 594.61 618.339 595.792 617.469 C 596.923 616.635 598.401 616.545 599.179 617.233 Z  M 594.12 614.381 C 594.712 614.905 594.648 615.948 593.941 616.804 C 593.185 617.72 591.976 618.077 591.243 617.596 C 591.194 617.565 591.149 617.531 591.106 617.493 C 590.514 616.969 590.579 615.926 591.285 615.07 C 592.041 614.154 593.25 613.797 593.984 614.278 C 594.032 614.309 594.078 614.343 594.12 614.381 Z  M 589.15 613.044 C 589.57 613.418 589.756 614.065 589.575 614.732 C 589.327 615.651 588.477 616.256 587.677 616.083 C 587.461 616.036 587.263 615.935 587.104 615.792 C 586.684 615.418 586.498 614.771 586.68 614.105 C 586.928 613.185 587.777 612.58 588.578 612.754 C 588.794 612.8 588.992 612.901 589.15 613.044 Z  M 584.84 612.696 C 585.213 613.028 585.381 613.612 585.222 614.216 C 585.005 615.047 584.254 615.6 583.545 615.451 C 583.355 615.41 583.181 615.323 583.04 615.198 C 582.666 614.866 582.499 614.282 582.658 613.678 C 582.874 612.846 583.626 612.294 584.334 612.442 C 584.529 612.483 584.699 612.572 584.84 612.696 Z  M 592.799 652.354 C 592.575 652.139 592.313 651.962 592.014 651.832 C 590.418 651.139 588.394 652.082 587.498 653.934 C 586.769 655.439 587.006 657.085 587.978 658.02 C 588.202 658.234 588.464 658.412 588.763 658.541 C 590.359 659.232 592.383 658.292 593.279 656.44 C 594.01 654.934 593.771 653.288 592.799 652.354 Z  M 597.5 656.935 C 597.467 656.902 597.431 656.871 597.393 656.842 C 596.53 656.155 595.068 656.479 594.124 657.57 C 593.221 658.612 593.123 659.977 593.87 660.695 C 593.903 660.728 593.939 660.759 593.977 660.788 C 594.84 661.474 596.302 661.151 597.245 660.059 C 598.149 659.016 598.247 657.653 597.5 656.935 Z  M 600.592 661.602 C 600.024 661.056 598.893 661.115 597.965 661.767 C 596.973 662.464 596.586 663.58 597.107 664.257 C 597.14 664.301 597.178 664.343 597.219 664.382 C 597.786 664.929 598.918 664.869 599.846 664.217 C 600.838 663.52 601.225 662.405 600.704 661.728 C 600.67 661.683 600.633 661.641 600.592 661.602 Z  M 602.041 666.187 C 601.636 665.799 600.934 665.628 600.212 665.795 C 599.215 666.024 598.56 666.808 598.748 667.546 C 598.799 667.746 598.908 667.928 599.063 668.074 C 599.468 668.462 600.17 668.633 600.892 668.466 C 601.889 668.237 602.544 667.454 602.356 666.715 C 602.306 666.516 602.197 666.333 602.041 666.187 Z  M 602.419 670.164 C 602.059 669.819 601.426 669.665 600.771 669.811 C 599.87 670.011 599.271 670.704 599.432 671.358 C 599.477 671.535 599.573 671.694 599.707 671.824 C 600.067 672.168 600.7 672.323 601.355 672.177 C 602.256 671.977 602.855 671.284 602.694 670.63 C 602.65 670.454 602.555 670.293 602.419 670.164 Z  M 653.33 598.883 C 652.317 597.986 650.533 597.765 648.901 598.44 C 646.893 599.269 645.874 601.133 646.623 602.606 C 646.764 602.882 646.956 603.124 647.189 603.33 C 648.201 604.227 649.985 604.448 651.617 603.773 C 653.625 602.944 654.645 601.08 653.896 599.607 C 653.757 599.336 653.565 599.09 653.33 598.883 Z  M 648.365 594.546 C 648.4 594.577 648.434 594.61 648.465 594.645 C 649.21 595.441 648.859 596.79 647.676 597.66 C 646.547 598.493 645.067 598.584 644.289 597.895 C 644.253 597.864 644.219 597.831 644.188 597.796 C 643.444 597 643.795 595.651 644.977 594.781 C 646.109 593.948 647.586 593.857 648.365 594.546 Z  M 643.305 591.693 C 643.898 592.217 643.833 593.261 643.126 594.117 C 642.371 595.033 641.161 595.389 640.428 594.909 C 640.379 594.878 640.334 594.843 640.291 594.806 C 639.699 594.282 639.764 593.238 640.47 592.382 C 641.226 591.466 642.435 591.11 643.169 591.59 C 643.217 591.621 643.263 591.656 643.305 591.693 Z  M 638.335 590.357 C 638.756 590.73 638.941 591.378 638.76 592.044 C 638.512 592.964 637.662 593.568 636.862 593.395 C 636.646 593.348 636.448 593.247 636.29 593.104 C 635.869 592.731 635.684 592.083 635.865 591.417 C 636.113 590.497 636.962 589.893 637.763 590.066 C 637.979 590.113 638.177 590.213 638.335 590.357 Z  M 634.025 590.008 C 634.398 590.34 634.566 590.924 634.407 591.528 C 634.19 592.36 633.439 592.912 632.73 592.764 C 632.54 592.723 632.366 592.635 632.225 592.51 C 631.852 592.178 631.684 591.594 631.843 590.99 C 632.06 590.159 632.811 589.606 633.52 589.755 C 633.714 589.796 633.884 589.885 634.025 590.008 Z  M 572.8 645.418 C 578.629 645.418 579.95 642.068 580.916 639.624 C 581.361 638.496 581.783 637.43 582.584 636.691 C 583.071 636.244 584.846 635.87 586.273 635.571 C 590.152 634.754 596.014 633.521 596.014 627.499 C 596.014 623.262 592.483 616.542 583.013 616.542 C 574.461 616.542 564.714 627.266 564.714 636.671 C 564.714 640.051 566.909 645.418 572.8 645.418 Z  M 586.373 659.855 C 579.843 659.855 578.508 665.263 577.625 668.84 C 577.299 670.158 576.896 671.795 576.409 672.245 C 575.608 672.983 574.453 673.371 573.227 673.783 C 570.58 674.674 566.95 675.891 566.95 681.27 C 566.95 686.705 572.767 688.73 576.431 688.73 C 586.628 688.73 598.249 679.738 598.249 671.849 C 598.249 663.112 590.965 659.855 586.373 659.855 Z  M 621.986 622.73 C 627.814 622.73 629.135 619.381 630.101 616.936 C 630.546 615.808 630.969 614.742 631.769 614.004 C 632.256 613.556 634.031 613.183 635.458 612.884 C 639.337 612.067 645.199 610.833 645.199 604.811 C 645.199 600.575 641.669 593.855 632.198 593.855 C 623.647 593.855 613.899 604.578 613.899 613.983 C 613.899 617.363 616.095 622.73 621.986 622.73 Z  M 635.558 635.105 C 629.028 635.105 627.693 640.513 626.81 644.089 C 626.484 645.407 626.081 647.045 625.594 647.495 C 624.794 648.233 623.638 648.621 622.413 649.033 C 619.766 649.924 616.135 651.141 616.135 656.52 C 616.135 661.955 621.952 663.98 625.616 663.98 C 635.813 663.98 647.434 654.988 647.434 647.099 C 647.434 638.362 640.151 635.105 635.558 635.105 Z  M 641.984 627.604 C 641.76 627.389 641.499 627.212 641.199 627.082 C 639.603 626.389 637.58 627.332 636.683 629.184 C 635.954 630.689 636.191 632.335 637.164 633.269 C 637.387 633.484 637.649 633.661 637.948 633.791 C 639.545 634.482 641.568 633.542 642.465 631.69 C 643.196 630.184 642.956 628.538 641.984 627.604 Z  M 646.686 632.185 C 646.652 632.152 646.616 632.121 646.578 632.092 C 645.715 631.405 644.253 631.729 643.31 632.82 C 642.406 633.861 642.308 635.227 643.055 635.945 C 643.088 635.978 643.124 636.009 643.162 636.037 C 644.025 636.724 645.487 636.4 646.431 635.309 C 647.334 634.266 647.432 632.902 646.686 632.185 Z  M 649.777 636.852 C 649.21 636.306 648.078 636.365 647.151 637.017 C 646.158 637.714 645.771 638.83 646.292 639.507 C 646.326 639.551 646.363 639.593 646.404 639.632 C 646.972 640.179 648.103 640.119 649.031 639.467 C 650.023 638.77 650.41 637.654 649.889 636.978 C 649.856 636.933 649.818 636.891 649.777 636.852 Z  M 651.226 641.437 C 650.822 641.049 650.12 640.878 649.397 641.045 C 648.4 641.274 647.745 642.058 647.933 642.796 C 647.984 642.995 648.093 643.178 648.248 643.324 C 648.653 643.712 649.355 643.883 650.077 643.716 C 651.074 643.487 651.729 642.703 651.541 641.965 C 651.491 641.766 651.382 641.583 651.226 641.437 Z  M 651.604 645.414 C 651.244 645.069 650.611 644.914 649.956 645.061 C 649.055 645.261 648.456 645.954 648.617 646.608 C 648.662 646.785 648.758 646.944 648.892 647.074 C 649.252 647.418 649.885 647.573 650.54 647.427 C 651.441 647.227 652.04 646.534 651.879 645.88 C 651.835 645.704 651.74 645.543 651.604 645.414 Z " fill="rgb(195,207,217)"/><path d=" M 691.302 557.06 C 690.092 556.455 688.311 556.704 686.909 557.778 C 685.185 559.098 684.682 561.163 685.787 562.392 C 685.995 562.622 686.243 562.805 686.521 562.945 C 687.731 563.549 689.512 563.3 690.914 562.227 C 692.638 560.906 693.14 558.841 692.036 557.613 C 691.832 557.386 691.583 557.199 691.302 557.06 Z  M 685.383 554.155 C 685.426 554.176 685.467 554.199 685.506 554.225 C 686.431 554.801 686.441 556.195 685.524 557.342 C 684.649 558.439 683.243 558.91 682.313 558.445 C 682.271 558.425 682.23 558.402 682.19 558.376 C 681.265 557.8 681.255 556.406 682.172 555.259 C 683.049 554.161 684.453 553.691 685.383 554.155 Z  M 679.758 552.709 C 680.466 553.062 680.673 554.087 680.212 555.097 C 679.719 556.177 678.644 556.834 677.811 556.56 C 677.756 556.543 677.703 556.521 677.652 556.496 C 676.945 556.143 676.737 555.118 677.198 554.109 C 677.691 553.028 678.767 552.371 679.599 552.645 C 679.654 552.663 679.707 552.684 679.758 552.709 Z  M 674.611 552.705 C 675.114 552.957 675.461 553.534 675.458 554.225 C 675.457 555.177 674.793 555.981 673.975 556.021 C 673.754 556.031 673.537 555.985 673.346 555.888 C 672.844 555.636 672.497 555.059 672.5 554.368 C 672.501 553.415 673.165 552.612 673.983 552.572 C 674.204 552.561 674.421 552.607 674.611 552.705 Z  M 670.358 553.484 C 670.804 553.708 671.117 554.228 671.12 554.853 C 671.126 555.712 670.543 556.44 669.82 556.48 C 669.626 556.49 669.435 556.45 669.267 556.366 C 668.82 556.142 668.507 555.622 668.504 554.997 C 668.498 554.138 669.081 553.409 669.804 553.369 C 670.002 553.359 670.19 553.401 670.358 553.484 Z  M 688.31 589.73 C 688.038 589.581 687.74 589.478 687.417 589.43 C 685.695 589.173 683.985 590.607 683.598 592.628 C 683.284 594.271 683.939 595.8 685.12 596.451 C 685.392 596.6 685.69 596.704 686.013 596.752 C 687.734 597.006 689.445 595.574 689.832 593.553 C 690.148 591.909 689.491 590.381 688.31 589.73 Z  M 694.037 592.938 C 693.996 592.915 693.953 592.894 693.909 592.876 C 692.898 592.436 691.569 593.128 690.94 594.426 C 690.337 595.666 690.596 597.01 691.503 597.51 C 691.544 597.533 691.587 597.554 691.631 597.572 C 692.642 598.012 693.97 597.321 694.599 596.023 C 695.202 594.781 694.944 593.438 694.037 592.938 Z  M 698.231 596.647 C 697.541 596.266 696.464 596.616 695.737 597.486 C 694.958 598.416 694.874 599.594 695.552 600.113 C 695.596 600.147 695.643 600.178 695.692 600.205 C 696.382 600.586 697.46 600.236 698.187 599.366 C 698.965 598.436 699.05 597.258 698.372 596.739 C 698.328 596.705 698.281 596.674 698.231 596.647 Z  M 700.817 600.7 C 700.326 600.43 699.604 600.447 698.95 600.795 C 698.046 601.274 697.616 602.201 697.988 602.866 C 698.089 603.045 698.242 603.193 698.429 603.294 C 698.921 603.564 699.643 603.547 700.297 603.199 C 701.201 602.72 701.631 601.793 701.259 601.129 C 701.158 600.949 701.006 600.801 700.817 600.7 Z  M 702.212 604.444 C 701.775 604.204 701.124 604.218 700.529 604.529 C 699.71 604.956 699.311 605.78 699.636 606.37 C 699.725 606.53 699.859 606.658 700.022 606.749 C 700.459 606.989 701.11 606.974 701.705 606.663 C 702.523 606.237 702.923 605.412 702.598 604.823 C 702.51 604.665 702.376 604.533 702.212 604.444 Z  M 732.939 522.415 C 731.729 521.811 729.948 522.059 728.547 523.133 C 726.822 524.454 726.32 526.518 727.424 527.747 C 727.632 527.978 727.88 528.161 728.158 528.3 C 729.369 528.904 731.149 528.656 732.551 527.582 C 734.275 526.261 734.778 524.197 733.673 522.968 C 733.469 522.742 733.22 522.554 732.939 522.415 Z  M 727.02 519.511 C 727.063 519.531 727.104 519.554 727.143 519.58 C 728.068 520.156 728.078 521.55 727.161 522.697 C 726.286 523.794 724.88 524.265 723.951 523.801 C 723.908 523.78 723.867 523.757 723.828 523.731 C 722.903 523.155 722.893 521.761 723.81 520.614 C 724.687 519.517 726.091 519.047 727.02 519.511 Z  M 721.395 518.065 C 722.103 518.417 722.311 519.442 721.85 520.452 C 721.357 521.532 720.281 522.19 719.448 521.915 C 719.393 521.898 719.34 521.877 719.29 521.851 C 718.582 521.498 718.374 520.474 718.835 519.464 C 719.328 518.384 720.404 517.726 721.237 518 C 721.291 518.018 721.344 518.039 721.395 518.065 Z  M 716.249 518.06 C 716.751 518.312 717.098 518.889 717.096 519.58 C 717.094 520.533 716.43 521.336 715.612 521.376 C 715.391 521.387 715.174 521.341 714.984 521.243 C 714.481 520.991 714.134 520.414 714.137 519.724 C 714.138 518.771 714.803 517.967 715.621 517.927 C 715.841 517.916 716.059 517.962 716.249 518.06 Z  M 711.995 518.839 C 712.441 519.063 712.755 519.584 712.758 520.208 C 712.763 521.067 712.181 521.796 711.458 521.836 C 711.264 521.845 711.072 521.806 710.904 521.721 C 710.457 521.497 710.144 520.977 710.141 520.352 C 710.136 519.493 710.718 518.765 711.441 518.725 C 711.64 518.714 711.827 518.756 711.995 518.839 Z  M 667.198 588.207 C 672.828 586.698 673.237 583.121 673.537 580.51 C 673.675 579.305 673.807 578.166 674.389 577.245 C 674.744 576.687 676.362 575.867 677.662 575.209 C 681.198 573.416 686.541 570.707 684.982 564.89 C 683.886 560.798 678.737 555.221 669.589 557.672 C 661.329 559.885 654.689 572.766 657.123 581.85 C 657.998 585.116 661.507 589.731 667.198 588.207 Z  M 684.045 598.639 C 677.737 600.329 677.847 605.899 677.92 609.582 C 677.946 610.939 677.981 612.625 677.626 613.186 C 677.045 614.106 676.028 614.78 674.952 615.495 C 672.625 617.041 669.433 619.156 670.826 624.352 C 672.232 629.601 678.375 630.052 681.915 629.104 C 691.764 626.465 700.662 614.771 698.62 607.15 C 696.359 598.711 688.48 597.451 684.045 598.639 Z  M 708.835 553.562 C 714.465 552.053 714.874 548.476 715.174 545.865 C 715.312 544.66 715.444 543.521 716.026 542.601 C 716.381 542.042 717.999 541.222 719.3 540.564 C 722.835 538.771 728.178 536.063 726.619 530.245 C 725.523 526.153 720.374 520.576 711.226 523.027 C 702.966 525.241 696.326 538.121 698.76 547.206 C 699.635 550.471 703.145 555.087 708.835 553.562 Z  M 725.148 562.002 C 718.84 563.693 718.951 569.262 719.023 572.945 C 719.049 574.302 719.084 575.988 718.73 576.549 C 718.148 577.469 717.132 578.143 716.055 578.858 C 713.729 580.404 710.537 582.519 711.929 587.715 C 713.336 592.964 719.479 593.415 723.018 592.467 C 732.868 589.828 741.766 578.134 739.724 570.513 C 737.462 562.074 729.584 560.814 725.148 562.002 Z  M 729.413 553.094 C 729.142 552.944 728.843 552.841 728.52 552.793 C 726.799 552.536 725.088 553.971 724.702 555.992 C 724.388 557.635 725.042 559.163 726.224 559.814 C 726.495 559.963 726.794 560.067 727.117 560.115 C 728.837 560.369 730.548 558.937 730.935 556.916 C 731.251 555.272 730.594 553.744 729.413 553.094 Z  M 735.14 556.301 C 735.099 556.278 735.057 556.258 735.013 556.24 C 734.001 555.8 732.673 556.491 732.044 557.789 C 731.441 559.029 731.699 560.373 732.606 560.873 C 732.647 560.896 732.69 560.917 732.734 560.935 C 733.745 561.375 735.074 560.684 735.703 559.386 C 736.305 558.144 736.047 556.801 735.14 556.301 Z  M 739.335 560.01 C 738.645 559.629 737.568 559.979 736.84 560.849 C 736.062 561.779 735.977 562.957 736.655 563.476 C 736.699 563.51 736.746 563.541 736.796 563.568 C 737.486 563.949 738.563 563.599 739.291 562.729 C 740.069 561.799 740.154 560.621 739.475 560.102 C 739.431 560.068 739.384 560.037 739.335 560.01 Z  M 741.921 564.063 C 741.43 563.794 740.707 563.81 740.053 564.158 C 739.149 564.637 738.719 565.564 739.092 566.229 C 739.193 566.408 739.345 566.556 739.533 566.657 C 740.024 566.927 740.747 566.911 741.401 566.562 C 742.305 566.083 742.735 565.156 742.362 564.492 C 742.262 564.312 742.109 564.164 741.921 564.063 Z  M 743.315 567.807 C 742.878 567.567 742.227 567.581 741.632 567.892 C 740.814 568.319 740.414 569.143 740.739 569.733 C 740.828 569.893 740.962 570.021 741.125 570.112 C 741.562 570.352 742.213 570.337 742.808 570.026 C 743.627 569.6 744.026 568.776 743.701 568.186 C 743.613 568.028 743.48 567.897 743.315 567.807 Z " fill="rgb(195,207,217)"/><path d=" M 778.139 481.491 C 776.918 480.908 775.142 481.187 773.759 482.285 C 772.058 483.636 771.592 485.709 772.718 486.918 C 772.929 487.145 773.181 487.324 773.461 487.458 C 774.682 488.041 776.458 487.762 777.841 486.664 C 779.542 485.313 780.008 483.24 778.882 482.031 C 778.674 481.808 778.422 481.625 778.139 481.491 Z  M 772.17 478.69 C 772.213 478.71 772.255 478.732 772.294 478.758 C 773.229 479.318 773.264 480.711 772.367 481.874 C 771.511 482.986 770.113 483.481 769.176 483.033 C 769.133 483.013 769.091 482.991 769.052 482.966 C 768.117 482.406 768.082 481.012 768.979 479.85 C 769.837 478.737 771.232 478.242 772.17 478.69 Z  M 766.521 477.343 C 767.234 477.683 767.46 478.704 767.017 479.722 C 766.543 480.81 765.478 481.486 764.641 481.227 C 764.586 481.21 764.533 481.19 764.481 481.165 C 763.768 480.825 763.542 479.804 763.985 478.786 C 764.459 477.698 765.524 477.021 766.361 477.281 C 766.416 477.298 766.469 477.318 766.521 477.343 Z  M 761.375 477.428 C 761.882 477.671 762.239 478.242 762.248 478.933 C 762.263 479.885 761.613 480.7 760.796 480.754 C 760.575 480.769 760.357 480.727 760.166 480.633 C 759.659 480.39 759.302 479.818 759.292 479.128 C 759.277 478.175 759.927 477.36 760.744 477.306 C 760.965 477.291 761.183 477.333 761.375 477.428 Z  M 757.135 478.281 C 757.586 478.497 757.908 479.012 757.922 479.637 C 757.942 480.495 757.373 481.234 756.65 481.286 C 756.456 481.299 756.264 481.263 756.095 481.182 C 755.644 480.966 755.322 480.451 755.308 479.826 C 755.288 478.967 755.857 478.229 756.58 478.176 C 756.778 478.162 756.966 478.201 757.135 478.281 Z  M 775.717 514.209 C 775.443 514.064 775.143 513.966 774.819 513.923 C 773.094 513.697 771.408 515.161 771.057 517.189 C 770.772 518.837 771.453 520.354 772.645 520.984 C 772.919 521.128 773.22 521.227 773.544 521.269 C 775.268 521.493 776.954 520.031 777.305 518.004 C 777.593 516.355 776.91 514.839 775.717 514.209 Z  M 781.499 517.316 C 781.458 517.294 781.415 517.274 781.371 517.257 C 780.352 516.834 779.036 517.549 778.429 518.857 C 777.848 520.108 778.13 521.447 779.046 521.931 C 779.087 521.954 779.13 521.974 779.174 521.991 C 780.193 522.413 781.509 521.699 782.116 520.39 C 782.696 519.138 782.415 517.8 781.499 517.316 Z  M 785.758 520.951 C 785.062 520.582 783.991 520.951 783.278 521.833 C 782.516 522.777 782.452 523.956 783.139 524.463 C 783.184 524.497 783.231 524.527 783.281 524.553 C 783.978 524.922 785.049 524.553 785.761 523.67 C 786.523 522.727 786.587 521.547 785.9 521.041 C 785.856 521.007 785.808 520.977 785.758 520.951 Z  M 788.414 524.959 C 787.919 524.697 787.197 524.726 786.548 525.086 C 785.653 525.581 785.239 526.515 785.624 527.173 C 785.727 527.35 785.882 527.496 786.072 527.594 C 786.568 527.855 787.29 527.826 787.938 527.466 C 788.833 526.971 789.247 526.037 788.863 525.379 C 788.76 525.202 788.604 525.056 788.414 524.959 Z  M 789.874 528.677 C 789.433 528.445 788.782 528.471 788.193 528.792 C 787.382 529.233 786.997 530.064 787.332 530.648 C 787.424 530.806 787.56 530.933 787.725 531.02 C 788.165 531.252 788.816 531.227 789.406 530.905 C 790.217 530.465 790.602 529.633 790.267 529.049 C 790.176 528.893 790.04 528.764 789.874 528.677 Z  M 819.165 446.125 C 817.944 445.542 816.169 445.821 814.786 446.919 C 813.084 448.27 812.618 450.343 813.744 451.552 C 813.956 451.779 814.207 451.958 814.487 452.092 C 815.708 452.675 817.484 452.396 818.867 451.298 C 820.568 449.947 821.034 447.874 819.908 446.665 C 819.7 446.442 819.448 446.259 819.165 446.125 Z  M 813.196 443.324 C 813.239 443.344 813.281 443.366 813.32 443.391 C 814.256 443.952 814.29 445.345 813.393 446.508 C 812.537 447.62 811.14 448.115 810.202 447.667 C 810.159 447.647 810.118 447.625 810.078 447.6 C 809.143 447.04 809.108 445.646 810.005 444.484 C 810.863 443.371 812.259 442.876 813.196 443.324 Z  M 807.547 441.977 C 808.261 442.317 808.486 443.338 808.043 444.355 C 807.569 445.444 806.505 446.12 805.667 445.861 C 805.612 445.844 805.559 445.824 805.508 445.799 C 804.794 445.459 804.568 444.438 805.012 443.42 C 805.486 442.332 806.55 441.655 807.387 441.915 C 807.442 441.931 807.496 441.952 807.547 441.977 Z  M 802.401 442.062 C 802.908 442.305 803.265 442.876 803.274 443.566 C 803.289 444.519 802.639 445.334 801.822 445.388 C 801.602 445.403 801.384 445.361 801.192 445.266 C 800.685 445.023 800.328 444.452 800.319 443.762 C 800.303 442.809 800.954 441.994 801.771 441.94 C 801.991 441.925 802.209 441.967 802.401 442.062 Z  M 798.162 442.915 C 798.612 443.131 798.934 443.646 798.948 444.271 C 798.969 445.129 798.399 445.868 797.677 445.92 C 797.483 445.933 797.291 445.897 797.121 445.816 C 796.671 445.6 796.349 445.085 796.335 444.46 C 796.314 443.601 796.884 442.863 797.606 442.81 C 797.804 442.796 797.992 442.835 798.162 442.915 Z  M 754.582 513.054 C 760.184 511.447 760.531 507.863 760.786 505.247 C 760.903 504.04 761.015 502.899 761.581 501.968 C 761.926 501.404 763.529 500.556 764.818 499.875 C 768.322 498.021 773.617 495.219 771.957 489.43 C 770.789 485.358 765.543 479.872 756.44 482.482 C 748.219 484.839 741.805 497.833 744.397 506.874 C 745.329 510.124 748.919 514.677 754.582 513.054 Z  M 771.608 523.191 C 765.331 524.991 765.539 530.557 765.675 534.238 C 765.725 535.595 765.789 537.28 765.445 537.847 C 764.879 538.777 763.875 539.469 762.811 540.203 C 760.512 541.789 757.357 543.959 758.84 549.13 C 760.338 554.354 766.488 554.698 770.01 553.688 C 779.812 550.877 788.505 539.03 786.33 531.446 C 783.922 523.048 776.023 521.925 771.608 523.191 Z  M 795.608 477.687 C 801.211 476.081 801.558 472.497 801.812 469.881 C 801.929 468.674 802.041 467.533 802.607 466.602 C 802.952 466.038 804.556 465.19 805.844 464.509 C 809.348 462.655 814.643 459.853 812.983 454.064 C 811.815 449.992 806.569 444.505 797.466 447.116 C 789.246 449.473 782.831 462.467 785.424 471.508 C 786.356 474.758 789.945 479.311 795.608 477.687 Z  M 812.066 485.842 C 805.789 487.642 805.996 493.208 806.133 496.89 C 806.183 498.246 806.247 499.932 805.903 500.498 C 805.337 501.429 804.333 502.12 803.269 502.854 C 800.97 504.44 797.815 506.611 799.298 511.781 C 800.796 517.006 806.946 517.349 810.468 516.339 C 820.27 513.528 828.962 501.681 826.788 494.097 C 824.38 485.699 816.48 484.576 812.066 485.842 Z  M 816.175 476.86 C 815.901 476.716 815.601 476.617 815.277 476.575 C 813.551 476.349 811.866 477.812 811.515 479.84 C 811.229 481.488 811.911 483.005 813.103 483.635 C 813.377 483.78 813.678 483.878 814.001 483.92 C 815.726 484.144 817.412 482.683 817.763 480.655 C 818.051 479.006 817.367 477.49 816.175 476.86 Z  M 821.957 479.968 C 821.916 479.945 821.873 479.925 821.828 479.908 C 820.81 479.486 819.493 480.2 818.887 481.509 C 818.306 482.759 818.588 484.099 819.503 484.583 C 819.545 484.605 819.588 484.625 819.632 484.642 C 820.651 485.065 821.967 484.35 822.573 483.041 C 823.154 481.789 822.873 480.452 821.957 479.968 Z  M 826.216 483.602 C 825.519 483.233 824.448 483.602 823.736 484.485 C 822.974 485.428 822.91 486.608 823.597 487.114 C 823.642 487.148 823.689 487.178 823.739 487.204 C 824.436 487.573 825.507 487.204 826.219 486.322 C 826.981 485.378 827.045 484.199 826.358 483.692 C 826.313 483.658 826.266 483.628 826.216 483.602 Z  M 828.872 487.61 C 828.376 487.349 827.654 487.378 827.006 487.737 C 826.111 488.232 825.697 489.166 826.081 489.824 C 826.185 490.002 826.34 490.147 826.53 490.245 C 827.026 490.506 827.748 490.477 828.396 490.118 C 829.291 489.623 829.705 488.689 829.321 488.031 C 829.217 487.853 829.062 487.707 828.872 487.61 Z  M 830.332 491.328 C 829.891 491.096 829.24 491.122 828.65 491.443 C 827.84 491.884 827.455 492.715 827.79 493.3 C 827.881 493.458 828.018 493.584 828.182 493.672 C 828.623 493.904 829.274 493.878 829.863 493.557 C 830.674 493.116 831.059 492.285 830.724 491.701 C 830.634 491.544 830.498 491.415 830.332 491.328 Z " fill="rgb(195,207,217)"/><path d=" M 490.144 400 C 493.407 402.542 512.481 408.912 514.021 455.8 C 514.084 457.8 514.021 459.858 514.021 462 L 525.959 462 C 525.959 400.387 498.274 400 490.144 400 Z  M 545.856 409.3 C 535.999 409.604 528.912 413.138 523.718 418.6 C 525.664 422.487 527.017 425.234 528.199 431 C 532.875 414.858 543.413 411.2 545.856 409.3 Z  M 478.206 421.7 C 481.254 424.075 497.001 431.267 498.103 458.9 C 498.151 459.904 498.103 460.934 498.103 462 L 510.041 462 C 510.041 435.7 500.093 422.379 478.206 421.7 Z  M 557.794 421.7 C 549.959 421.7 529.938 428.675 529.938 462 L 541.877 462 C 541.877 433.967 554.312 424.412 557.794 421.7 Z " fill="rgb(195,207,217)"/><path d=" M 556.57 400 C 559.833 402.542 578.907 408.912 580.447 455.8 C 580.51 457.8 580.447 459.858 580.447 462 L 592.385 462 C 592.385 400.387 564.7 400 556.57 400 Z  M 612.282 409.3 C 602.425 409.604 595.338 413.138 590.145 418.6 C 592.091 422.487 593.444 425.234 594.625 431 C 599.301 414.858 609.839 411.2 612.282 409.3 Z  M 544.632 421.7 C 547.68 424.075 563.427 431.267 564.529 458.9 C 564.577 459.904 564.529 460.934 564.529 462 L 576.467 462 C 576.467 435.7 566.519 422.379 544.632 421.7 Z  M 624.22 421.7 C 616.385 421.7 596.364 428.675 596.364 462 L 608.303 462 C 608.303 433.967 620.738 424.412 624.22 421.7 Z " fill="rgb(195,207,217)"/><path d=" M 1109.127 400 C 1112.39 402.542 1131.463 408.912 1133.004 455.8 C 1133.067 457.8 1133.004 459.858 1133.004 462 L 1144.942 462 C 1144.942 400.387 1117.257 400 1109.127 400 Z  M 1164.839 409.3 C 1154.982 409.604 1147.895 413.138 1142.701 418.6 C 1144.647 422.487 1146 425.234 1147.182 431 C 1151.858 414.858 1162.396 411.2 1164.839 409.3 Z  M 1097.189 421.7 C 1100.237 424.075 1115.983 431.267 1117.086 458.9 C 1117.134 459.904 1117.086 460.934 1117.086 462 L 1129.024 462 C 1129.024 435.7 1119.075 422.379 1097.189 421.7 Z  M 1176.777 421.7 C 1168.942 421.7 1148.921 428.675 1148.921 462 L 1160.86 462 C 1160.86 433.967 1173.295 424.412 1176.777 421.7 Z " fill="rgb(195,207,217)"/><path d=" M 1029.538 400 C 1032.801 402.542 1051.875 408.912 1053.415 455.8 C 1053.479 457.8 1053.415 459.858 1053.415 462 L 1065.353 462 C 1065.353 400.387 1037.668 400 1029.538 400 Z  M 1085.25 409.3 C 1075.393 409.604 1068.306 413.138 1063.113 418.6 C 1065.059 422.487 1066.412 425.234 1067.594 431 C 1072.269 414.858 1082.807 411.2 1085.25 409.3 Z  M 1017.6 421.7 C 1020.648 424.075 1036.395 431.267 1037.497 458.9 C 1037.545 459.904 1037.497 460.934 1037.497 462 L 1049.435 462 C 1049.435 435.7 1039.487 422.379 1017.6 421.7 Z  M 1097.189 421.7 C 1089.353 421.7 1069.333 428.675 1069.333 462 L 1081.271 462 C 1081.271 433.967 1093.707 424.412 1097.189 421.7 Z " fill="rgb(195,207,217)"/><g><path d=" M 769.028 188.535 L 744.99 188.535 L 744.99 209.046 L 769.028 227.289 L 769.028 188.535 Z  M 769.028 235.604 L 744.99 217.361 L 699.03 182.538 L 654.229 217.411 L 609.428 252.234 L 609.428 275.92 L 699.03 206.224 L 791 275.92 L 791 252.234 L 769.028 235.604 L 769.028 235.604 Z " fill="rgb(195,207,217)"/><path d=" M 623.79 273.148 L 623.79 350 L 672.623 350 L 672.623 291.34 L 727.755 291.34 L 727.755 350 L 776.637 350 L 776.637 273.35 L 699.08 214.589 L 623.79 273.148 Z " fill="rgb(195,207,217)"/></g><g><path d=" M 1012.6 188.535 L 988.562 188.535 L 988.562 209.046 L 1012.6 227.289 L 1012.6 188.535 Z  M 1012.6 235.604 L 988.562 217.361 L 942.602 182.538 L 897.801 217.411 L 853 252.234 L 853 275.92 L 942.602 206.224 L 1034.572 275.92 L 1034.572 252.234 L 1012.6 235.604 L 1012.6 235.604 Z " fill="rgb(195,207,217)"/><path d=" M 867.363 273.148 L 867.363 350 L 916.195 350 L 916.195 291.341 L 971.327 291.341 L 971.327 350 L 1020.21 350 L 1020.21 273.35 L 942.652 214.589 L 867.363 273.148 Z " fill="rgb(195,207,217)"/></g><path d=" M 417.088 15 C 472.782 15 518 60.033 518 115.5 C 518 170.967 472.782 216 417.088 216 C 361.394 216 316.176 170.967 316.176 115.5 C 316.176 60.033 361.394 15 417.088 15 Z  M 417.088 23.156 C 467.597 23.156 508.606 64.535 508.606 115.5 C 508.606 166.469 467.597 207.844 417.088 207.848 C 366.58 207.848 325.57 166.469 325.57 115.5 C 325.57 64.535 366.58 23.156 417.088 23.156 Z  M 417.088 29.265 C 464.876 29.265 503.676 67.907 503.676 115.5 C 503.676 163.093 464.876 201.735 417.088 201.735 C 369.3 201.735 330.5 163.093 330.5 115.5 C 330.5 67.907 369.3 29.265 417.088 29.265 Z " fill-rule="evenodd" fill="rgb(195,207,217)"/><ellipse vector-effect="non-scaling-stroke" cx="126" cy="553" rx="278.99999999999994" ry="303.9999999999999" fill="rgb(195,207,217)"/><ellipse vector-effect="non-scaling-stroke" cx="29.75000000000003" cy="249.00000000000003" rx="245.24999999999994" ry="248.99999999999997" fill="rgb(195,207,217)"/><path d=" M 515.789 372.5 L 503.676 380.75 L 503.676 394.5 L 665.176 394.5 L 665.176 389 L 657.101 389 L 657.101 380.75 L 644.989 372.5 L 632.876 380.75 L 632.876 389 L 624.801 389 L 624.801 380.75 L 612.689 372.5 L 600.576 380.75 L 600.576 389 L 592.501 389 L 592.501 380.75 L 580.389 372.5 L 568.276 380.75 L 568.276 389 L 560.201 389 L 560.201 380.75 L 548.089 372.5 L 535.976 380.75 L 535.976 389 L 527.901 389 L 527.901 380.75 L 515.789 372.5 Z  M 503.676 397.25 L 503.676 416.5 L 665.176 416.5 L 665.176 411 L 657.101 411 L 657.101 397.25 L 632.876 397.25 L 632.876 411 L 624.801 411 L 624.801 397.25 L 600.576 397.25 L 600.576 411 L 592.501 411 L 592.501 397.25 L 568.276 397.25 L 568.276 411 L 560.201 411 L 560.201 397.25 L 535.976 397.25 L 535.976 411 L 527.901 411 L 527.901 397.25 L 503.676 397.25 Z  M 503.676 419.25 L 503.676 427.5 L 527.901 427.5 L 527.901 419.25 L 503.676 419.25 Z  M 535.976 419.25 L 535.976 427.5 L 560.201 427.5 L 560.201 419.25 L 535.976 419.25 Z  M 568.276 419.25 L 568.276 427.5 L 592.501 427.5 L 592.501 419.25 L 568.276 419.25 Z  M 600.576 419.25 L 600.576 427.5 L 624.801 427.5 L 624.801 419.25 L 600.576 419.25 Z  M 632.876 419.25 L 632.876 427.5 L 657.101 427.5 L 657.101 419.25 L 632.876 419.25 Z " fill="rgb(195,207,217)"/><path d=" M 641.612 372.5 L 629.5 380.75 L 629.5 394.5 L 791 394.5 L 791 389 L 782.925 389 L 782.925 380.75 L 770.812 372.5 L 758.7 380.75 L 758.7 389 L 750.625 389 L 750.625 380.75 L 738.512 372.5 L 726.4 380.75 L 726.4 389 L 718.325 389 L 718.325 380.75 L 706.212 372.5 L 694.1 380.75 L 694.1 389 L 686.025 389 L 686.025 380.75 L 673.912 372.5 L 661.8 380.75 L 661.8 389 L 653.725 389 L 653.725 380.75 L 641.612 372.5 Z  M 629.5 397.25 L 629.5 416.5 L 791 416.5 L 791 411 L 782.925 411 L 782.925 397.25 L 758.7 397.25 L 758.7 411 L 750.625 411 L 750.625 397.25 L 726.4 397.25 L 726.4 411 L 718.325 411 L 718.325 397.25 L 694.1 397.25 L 694.1 411 L 686.025 411 L 686.025 397.25 L 661.8 397.25 L 661.8 411 L 653.725 411 L 653.725 397.25 L 629.5 397.25 Z  M 629.5 419.25 L 629.5 427.5 L 653.725 427.5 L 653.725 419.25 L 629.5 419.25 Z  M 661.8 419.25 L 661.8 427.5 L 686.025 427.5 L 686.025 419.25 L 661.8 419.25 Z  M 694.1 419.25 L 694.1 427.5 L 718.325 427.5 L 718.325 419.25 L 694.1 419.25 Z  M 726.4 419.25 L 726.4 427.5 L 750.625 427.5 L 750.625 419.25 L 726.4 419.25 Z  M 758.7 419.25 L 758.7 427.5 L 782.925 427.5 L 782.925 419.25 L 758.7 419.25 Z " fill="rgb(195,207,217)"/><path d=" M 875.149 372.5 L 863.036 380.75 L 863.036 394.5 L 1024.536 394.5 L 1024.536 389 L 1016.461 389 L 1016.461 380.75 L 1004.349 372.5 L 992.236 380.75 L 992.236 389 L 984.161 389 L 984.161 380.75 L 972.049 372.5 L 959.936 380.75 L 959.936 389 L 951.861 389 L 951.861 380.75 L 939.749 372.5 L 927.636 380.75 L 927.636 389 L 919.561 389 L 919.561 380.75 L 907.449 372.5 L 895.336 380.75 L 895.336 389 L 887.261 389 L 887.261 380.75 L 875.149 372.5 Z  M 863.036 397.25 L 863.036 416.5 L 1024.536 416.5 L 1024.536 411 L 1016.461 411 L 1016.461 397.25 L 992.236 397.25 L 992.236 411 L 984.161 411 L 984.161 397.25 L 959.936 397.25 L 959.936 411 L 951.861 411 L 951.861 397.25 L 927.636 397.25 L 927.636 411 L 919.561 411 L 919.561 397.25 L 895.336 397.25 L 895.336 411 L 887.261 411 L 887.261 397.25 L 863.036 397.25 Z  M 863.036 419.25 L 863.036 427.5 L 887.261 427.5 L 887.261 419.25 L 863.036 419.25 Z  M 895.336 419.25 L 895.336 427.5 L 919.561 427.5 L 919.561 419.25 L 895.336 419.25 Z  M 927.636 419.25 L 927.636 427.5 L 951.861 427.5 L 951.861 419.25 L 927.636 419.25 Z  M 959.936 419.25 L 959.936 427.5 L 984.161 427.5 L 984.161 419.25 L 959.936 419.25 Z  M 992.236 419.25 L 992.236 427.5 L 1016.461 427.5 L 1016.461 419.25 L 992.236 419.25 Z " fill="rgb(195,207,217)"/><path d=" M 1000.289 372.5 L 988.176 380.75 L 988.176 394.5 L 1149.676 394.5 L 1149.676 389 L 1141.601 389 L 1141.601 380.75 L 1129.489 372.5 L 1117.376 380.75 L 1117.376 389 L 1109.301 389 L 1109.301 380.75 L 1097.189 372.5 L 1085.076 380.75 L 1085.076 389 L 1077.001 389 L 1077.001 380.75 L 1064.889 372.5 L 1052.776 380.75 L 1052.776 389 L 1044.701 389 L 1044.701 380.75 L 1032.589 372.5 L 1020.476 380.75 L 1020.476 389 L 1012.401 389 L 1012.401 380.75 L 1000.289 372.5 Z  M 988.176 397.25 L 988.176 416.5 L 1149.676 416.5 L 1149.676 411 L 1141.601 411 L 1141.601 397.25 L 1117.376 397.25 L 1117.376 411 L 1109.301 411 L 1109.301 397.25 L 1085.076 397.25 L 1085.076 411 L 1077.001 411 L 1077.001 397.25 L 1052.776 397.25 L 1052.776 411 L 1044.701 411 L 1044.701 397.25 L 1020.476 397.25 L 1020.476 411 L 1012.401 411 L 1012.401 397.25 L 988.176 397.25 Z  M 988.176 419.25 L 988.176 427.5 L 1012.401 427.5 L 1012.401 419.25 L 988.176 419.25 Z  M 1020.476 419.25 L 1020.476 427.5 L 1044.701 427.5 L 1044.701 419.25 L 1020.476 419.25 Z  M 1052.776 419.25 L 1052.776 427.5 L 1077.001 427.5 L 1077.001 419.25 L 1052.776 419.25 Z  M 1085.076 419.25 L 1085.076 427.5 L 1109.301 427.5 L 1109.301 419.25 L 1085.076 419.25 Z  M 1117.376 419.25 L 1117.376 427.5 L 1141.601 427.5 L 1141.601 419.25 L 1117.376 419.25 Z " fill="rgb(195,207,217)"/><defs><filter id="3LPRpFJiJPX8AJlL2FJkeRqoTRojCd62" x="-200%" y="-200%" width="400%" height="400%" filterUnits="objectBoundingBox" color-interpolation-filters="sRGB"><feOffset xmlns="http://www.w3.org/2000/svg" in="SourceGraphic" dx="0" dy="0"/><feGaussianBlur xmlns="http://www.w3.org/2000/svg" stdDeviation="2.146804531419514" result="pf_100_offsetBlur"/><feComposite xmlns="http://www.w3.org/2000/svg" in="SourceGraphic" in2="pf_100_offsetBlur" result="pf_100_inverse" operator="out"/><feFlood xmlns="http://www.w3.org/2000/svg" flood-color="#000000" flood-opacity="0.5" result="pf_100_color"/><feComposite xmlns="http://www.w3.org/2000/svg" in="pf_100_color" in2="pf_100_inverse" operator="in" result="pf_100_shadow"/><feComposite xmlns="http://www.w3.org/2000/svg" in="pf_100_shadow" in2="SourceGraphic" operator="over"/></filter></defs><g filter="url(#3LPRpFJiJPX8AJlL2FJkeRqoTRojCd62)"><g clip-path="url(#_clipPath_sNa6w6b3rCorL4dGc0muB5CAdpyO6IMb)"><text transform="matrix(1,0,0,1,906.586,711.77)" style="font-family:'Orbitron';font-weight:400;font-size:60px;font-style:normal;fill:#bdc2c6;stroke:none;">LearnerX</text></g><defs><clipPath id="_clipPath_sNa6w6b3rCorL4dGc0muB5CAdpyO6IMb"><rect x="0" y="0" width="330.089" height="131.404" transform="matrix(1,0,0,1,903.911,623.029)"/></clipPath></defs></g><path d="M 897.575 629.5 L 1237.685 629.5 C 1243.378 629.5 1248 634.122 1248 639.815 L 1248 744.115 C 1248 749.808 1243.378 754.43 1237.685 754.43 L 897.575 754.43 C 891.882 754.43 887.26 749.808 887.26 744.115 L 887.26 639.815 C 887.26 634.122 891.882 629.5 897.575 629.5 Z" style="fill:none;stroke:#000000;stroke-width:6;stroke-linecap:square;stroke-miterlimit:2;"/><path d="M 51.908 498.1 L 307.202 498.1 C 312.157 498.1 316.18 502.123 316.18 507.077 L 316.18 614.053 C 316.18 619.007 312.157 623.03 307.202 623.03 L 51.908 623.03 C 46.953 623.03 42.93 619.007 42.93 614.053 L 42.93 507.077 C 42.93 502.123 46.953 498.1 51.908 498.1 Z" style="fill:none;stroke:#000000;stroke-width:10;stroke-linecap:square;stroke-miterlimit:2;"/><path d=" M 876.5 85.045 C 873.935 84.281 871.387 83.415 868.839 82.6 C 869.073 82.787 869.322 82.906 869.555 83.042 C 871.737 84.247 873.935 85.419 876.083 86.659 C 876.516 86.896 876.816 87.372 877.166 87.745 C 877.099 87.83 877.049 87.915 876.982 88 C 874.251 87.457 871.903 85.827 869.322 84.876 C 866.708 83.925 864.193 82.685 861.645 81.564 C 861.829 81.87 862.095 82.04 862.362 82.21 C 863.96 83.229 865.575 84.213 867.157 85.266 C 867.54 85.521 867.79 85.962 868.09 86.319 C 868.023 86.421 867.94 86.506 867.874 86.608 C 863.544 85.249 859.664 82.804 855.551 80.902 C 856.367 81.531 857.233 82.091 858.082 82.668 C 858.898 83.229 859.714 83.806 860.546 84.366 C 860.496 84.485 860.43 84.604 860.38 84.706 C 859.864 84.587 859.331 84.553 858.848 84.349 C 857.599 83.806 856.367 83.212 855.134 82.634 C 854.268 82.227 853.419 81.836 852.553 81.429 C 853.452 82.532 854.452 83.483 855.417 84.451 C 855.684 84.706 855.95 84.978 856.1 85.3 C 856.3 85.725 856.2 86.166 855.617 86.064 C 854.918 85.928 854.169 85.793 853.552 85.436 C 852.453 84.808 851.438 84.061 850.422 83.313 C 849.522 82.668 848.673 81.955 847.657 81.157 C 847.757 81.564 847.807 81.768 847.857 81.955 C 847.907 82.193 847.99 82.414 848.007 82.651 C 848.057 83.415 847.807 83.721 847.108 83.483 C 846.542 83.296 845.992 82.923 845.559 82.498 C 844.776 81.734 844.11 80.868 843.278 79.934 L 843.278 80.749 C 843.311 82.125 842.861 82.414 841.662 81.717 C 841.396 81.564 841.13 81.344 840.98 81.089 C 840.014 79.408 839.015 77.744 838.615 75.808 C 838.465 75.112 838.332 74.416 838.182 73.618 C 837.649 73.889 837.183 74.11 836.717 74.365 C 834.752 75.418 833.086 77.082 830.738 77.37 C 829.689 77.489 828.657 77.659 827.608 77.795 C 827.358 77.829 827.092 77.812 826.842 77.812 C 826.142 77.829 825.46 77.846 824.76 77.88 C 824.56 77.88 824.344 77.863 824.161 77.914 C 823.245 78.253 822.379 78.219 821.58 77.557 C 820.447 78.78 819.248 78.253 818.349 77.829 C 817.516 78.236 816.917 78.746 816.267 78.797 C 815.202 78.882 815.485 77.727 815.102 76.997 C 814.819 77.489 814.602 77.914 814.352 78.304 C 813.903 79 812.687 79.289 811.638 78.967 C 810.839 78.729 811.305 78.033 811.188 77.557 C 811.172 77.472 811.172 77.37 811.138 77.065 C 810.289 78.287 809.323 78.474 808.191 77.88 L 808.191 77.235 C 808.541 75.486 809.823 74.891 811.338 74.501 C 812.72 74.144 814.153 73.822 815.435 73.193 C 817.666 72.09 819.781 70.748 821.929 69.492 C 822.146 69.356 822.329 69.169 822.612 68.931 L 819.498 68.931 C 819.615 69.288 819.714 69.593 819.831 69.899 C 819.748 69.95 819.665 70.018 819.598 70.069 C 819.165 69.576 818.499 69.135 818.349 68.558 C 818.049 67.403 817.899 66.163 817.916 64.958 C 817.916 64.448 818.432 63.871 818.849 63.481 C 819.581 62.784 820.547 62.716 821.513 62.767 C 823.395 62.869 825.276 62.988 827.158 63.124 C 828.307 63.209 829.14 62.666 829.689 61.698 C 830.122 60.934 830.455 60.135 830.788 59.32 C 831.721 57.045 832.803 54.804 833.503 52.443 C 834.469 49.166 835.085 45.787 835.967 42.476 C 836.783 39.403 837.499 36.329 837.666 33.154 C 837.732 32.05 837.799 30.963 837.882 29.656 C 839.198 31.762 838.815 33.935 838.981 36.041 C 840.114 33.918 840.147 31.592 840.314 29.265 C 840.397 29.299 840.513 29.299 840.613 29.299 C 841.762 30.267 841.629 31.609 841.629 32.899 C 841.629 33.884 841.496 34.869 841.613 35.939 C 842.578 33.935 843.528 31.948 844.593 29.724 C 844.71 30.199 844.876 30.522 844.826 30.811 C 844.577 32.22 844.31 33.629 843.977 35.022 C 843.744 36.024 843.378 36.991 843.061 37.976 C 843.128 38.027 843.195 38.061 843.261 38.112 C 843.611 37.722 843.994 37.348 844.277 36.924 C 844.893 36.024 845.443 35.09 846.075 34.19 C 846.209 34.003 846.492 33.935 846.708 33.816 C 846.775 34.037 846.908 34.258 846.891 34.461 C 846.775 35.429 846.625 36.414 846.475 37.382 C 846.425 37.739 846.325 38.095 846.192 38.655 C 846.508 38.384 846.642 38.231 846.808 38.129 C 847.025 38.01 847.308 37.806 847.474 37.874 C 847.657 37.942 847.857 38.299 847.841 38.503 C 847.791 39.199 847.691 39.912 847.541 40.608 C 847.441 41.033 847.424 41.304 847.641 41.746 C 847.874 42.204 847.641 42.951 847.508 43.546 C 847.424 43.885 847.125 44.174 846.841 44.633 C 847.324 44.666 847.724 44.7 848.107 44.734 C 848.923 44.819 849.123 45.142 848.79 45.889 C 848.623 46.28 848.473 46.67 848.307 47.044 C 849.889 48.13 849.889 48.232 848.074 49.862 C 848.473 50.219 848.923 50.542 849.239 50.966 C 849.423 51.221 849.506 51.662 849.439 51.968 C 849.339 52.426 849.373 52.715 849.789 52.987 C 850.005 53.123 850.172 53.394 850.438 53.683 C 850.022 53.87 849.722 53.989 849.373 54.141 C 849.539 54.498 849.772 54.855 849.905 55.245 C 850.022 55.636 850.055 56.043 850.122 56.502 C 849.722 56.553 849.456 56.604 849.173 56.638 C 849.189 58.149 849.189 58.149 848.074 58.522 C 847.99 59.202 848.923 60.203 847.524 60.509 L 847.524 61.817 C 847.524 61.969 847.557 62.241 847.474 62.275 C 846.692 62.699 847.025 63.379 847.041 64.007 C 847.058 64.618 846.692 64.89 846.125 64.686 C 845.759 64.55 845.426 64.33 844.976 64.092 C 845.11 64.601 845.209 65.026 845.359 65.433 C 845.559 66.011 845.609 66.656 845.06 66.928 C 844.643 67.131 844.044 66.962 843.528 66.911 C 843.361 66.894 843.211 66.758 843.078 66.673 C 843.045 67.097 842.945 67.505 843.011 67.878 C 843.061 68.133 843.311 68.49 843.544 68.558 C 844.577 68.88 845.626 69.22 846.708 69.39 C 848.407 69.627 850.139 69.729 851.854 69.899 C 851.97 69.916 852.087 69.984 852.337 70.069 C 851.887 70.29 851.554 70.442 851.005 70.697 C 853.403 71.037 855.584 71.359 857.765 71.665 C 857.765 71.784 857.749 71.92 857.749 72.039 L 853.169 72.395 L 853.169 72.531 C 855.684 73.346 858.198 74.161 860.696 74.993 C 860.663 75.112 860.646 75.231 860.613 75.333 C 859.997 75.282 859.381 75.214 858.765 75.163 C 858.748 75.214 858.748 75.248 858.731 75.299 C 860.913 76.063 863.078 76.81 865.259 77.574 C 865.242 77.676 865.242 77.778 865.226 77.863 L 863.261 77.761 L 863.211 77.931 C 866.841 79.119 870.471 80.308 874.118 81.497 C 874.085 81.598 874.052 81.7 874.035 81.802 C 871.72 81.242 869.406 80.682 867.108 80.121 C 867.091 80.172 867.074 80.223 867.058 80.291 L 872.353 82.38 C 874.168 83.11 876 83.84 877.815 84.587 C 878.248 84.757 878.631 85.045 879.031 85.283 L 879.031 85.436 C 878.181 85.317 877.316 85.283 876.5 85.045 L 876.5 85.045 Z " fill="rgb(195,207,217)"/><path d=" M 961.675 70.78 C 959.11 70.016 956.563 69.15 954.015 68.335 C 954.248 68.522 954.498 68.641 954.731 68.776 C 956.912 69.982 959.11 71.154 961.259 72.393 C 961.692 72.631 961.991 73.106 962.341 73.48 C 962.274 73.565 962.224 73.65 962.158 73.735 C 959.427 73.191 957.079 71.561 954.498 70.61 C 951.883 69.659 949.369 68.42 946.821 67.299 C 947.004 67.605 947.27 67.775 947.537 67.944 C 949.136 68.963 950.751 69.948 952.333 71.001 C 952.716 71.255 952.966 71.697 953.265 72.054 C 953.199 72.155 953.115 72.24 953.049 72.342 C 948.719 70.984 944.839 68.539 940.726 66.637 C 941.542 67.265 942.408 67.825 943.257 68.403 C 944.073 68.963 944.889 69.54 945.722 70.101 C 945.672 70.22 945.605 70.339 945.555 70.44 C 945.039 70.322 944.506 70.288 944.023 70.084 C 942.774 69.54 941.542 68.946 940.31 68.369 C 939.444 67.961 938.594 67.571 937.729 67.163 C 938.628 68.267 939.627 69.218 940.593 70.186 C 940.859 70.44 941.126 70.712 941.276 71.035 C 941.475 71.459 941.375 71.901 940.793 71.799 C 940.093 71.663 939.344 71.527 938.728 71.171 C 937.629 70.542 936.613 69.795 935.597 69.048 C 934.698 68.403 933.849 67.69 932.833 66.892 C 932.933 67.299 932.983 67.503 933.033 67.69 C 933.083 67.927 933.166 68.148 933.182 68.386 C 933.232 69.15 932.983 69.456 932.283 69.218 C 931.717 69.031 931.167 68.657 930.734 68.233 C 929.952 67.469 929.286 66.603 928.453 65.669 L 928.453 66.484 C 928.486 67.859 928.037 68.148 926.838 67.452 C 926.571 67.299 926.305 67.078 926.155 66.824 C 925.189 65.143 924.19 63.479 923.79 61.543 C 923.641 60.847 923.507 60.15 923.357 59.352 C 922.825 59.624 922.358 59.845 921.892 60.099 C 919.927 61.152 918.262 62.816 915.914 63.105 C 914.865 63.224 913.832 63.394 912.783 63.529 C 912.533 63.563 912.267 63.546 912.017 63.546 C 911.318 63.563 910.635 63.58 909.936 63.614 C 909.736 63.614 909.519 63.597 909.336 63.648 C 908.42 63.988 907.554 63.954 906.755 63.292 C 905.623 64.514 904.424 63.988 903.524 63.563 C 902.692 63.971 902.092 64.48 901.443 64.531 C 900.377 64.616 900.66 63.462 900.277 62.731 C 899.994 63.224 899.777 63.648 899.528 64.039 C 899.078 64.735 897.862 65.024 896.813 64.701 C 896.014 64.463 896.48 63.767 896.364 63.292 C 896.347 63.207 896.347 63.105 896.314 62.799 C 895.464 64.022 894.499 64.209 893.366 63.614 L 893.366 62.969 C 893.716 61.22 894.998 60.626 896.514 60.235 C 897.896 59.879 899.328 59.556 900.61 58.928 C 902.842 57.824 904.956 56.483 907.105 55.226 C 907.321 55.09 907.504 54.904 907.787 54.666 L 904.673 54.666 C 904.79 55.022 904.89 55.328 905.006 55.634 C 904.923 55.685 904.84 55.753 904.773 55.803 C 904.34 55.311 903.674 54.87 903.524 54.292 C 903.225 53.138 903.075 51.898 903.091 50.692 C 903.091 50.183 903.608 49.606 904.024 49.215 C 904.757 48.519 905.722 48.451 906.688 48.502 C 908.57 48.604 910.452 48.723 912.333 48.859 C 913.482 48.943 914.315 48.4 914.865 47.432 C 915.298 46.668 915.631 45.87 915.964 45.055 C 916.896 42.78 917.979 40.538 918.678 38.178 C 919.644 34.901 920.26 31.522 921.143 28.211 C 921.959 25.137 922.675 22.064 922.841 18.888 C 922.908 17.785 922.974 16.698 923.058 15.391 C 924.373 17.496 923.99 19.67 924.157 21.775 C 925.289 19.653 925.322 17.326 925.489 15 C 925.572 15.034 925.689 15.034 925.789 15.034 C 926.938 16.002 926.805 17.343 926.805 18.634 C 926.805 19.619 926.671 20.603 926.788 21.673 C 927.754 19.67 928.703 17.683 929.769 15.458 C 929.885 15.934 930.052 16.257 930.002 16.545 C 929.752 17.955 929.486 19.364 929.153 20.756 C 928.919 21.758 928.553 22.726 928.237 23.711 C 928.303 23.762 928.37 23.796 928.436 23.847 C 928.786 23.456 929.169 23.083 929.452 22.658 C 930.068 21.758 930.618 20.824 931.251 19.924 C 931.384 19.737 931.667 19.67 931.884 19.551 C 931.95 19.771 932.083 19.992 932.067 20.196 C 931.95 21.164 931.8 22.149 931.65 23.117 C 931.6 23.473 931.501 23.83 931.367 24.39 C 931.684 24.118 931.817 23.966 931.983 23.864 C 932.2 23.745 932.483 23.541 932.65 23.609 C 932.833 23.677 933.033 24.033 933.016 24.237 C 932.966 24.933 932.866 25.647 932.716 26.343 C 932.616 26.767 932.6 27.039 932.816 27.48 C 933.049 27.939 932.816 28.686 932.683 29.28 C 932.6 29.62 932.3 29.909 932.017 30.367 C 932.5 30.401 932.899 30.435 933.282 30.469 C 934.098 30.554 934.298 30.877 933.965 31.624 C 933.799 32.014 933.649 32.405 933.482 32.778 C 935.064 33.865 935.064 33.967 933.249 35.597 C 933.649 35.954 934.098 36.276 934.415 36.701 C 934.598 36.955 934.681 37.397 934.615 37.703 C 934.515 38.161 934.548 38.45 934.964 38.721 C 935.181 38.857 935.347 39.129 935.614 39.418 C 935.197 39.604 934.898 39.723 934.548 39.876 C 934.714 40.233 934.948 40.589 935.081 40.98 C 935.197 41.37 935.231 41.778 935.297 42.236 C 934.898 42.287 934.631 42.338 934.348 42.372 C 934.365 43.883 934.365 43.883 933.249 44.257 C 933.166 44.936 934.098 45.938 932.699 46.244 L 932.699 47.551 C 932.699 47.704 932.733 47.976 932.65 48.01 C 931.867 48.434 932.2 49.113 932.217 49.742 C 932.233 50.353 931.867 50.624 931.301 50.421 C 930.934 50.285 930.601 50.064 930.152 49.826 C 930.285 50.336 930.385 50.76 930.535 51.168 C 930.734 51.745 930.784 52.39 930.235 52.662 C 929.819 52.866 929.219 52.696 928.703 52.645 C 928.536 52.628 928.386 52.492 928.253 52.407 C 928.22 52.832 928.12 53.239 928.187 53.613 C 928.237 53.868 928.486 54.224 928.72 54.292 C 929.752 54.615 930.801 54.954 931.884 55.124 C 933.582 55.362 935.314 55.464 937.029 55.634 C 937.146 55.651 937.262 55.719 937.512 55.803 C 937.062 56.024 936.729 56.177 936.18 56.432 C 938.578 56.771 940.759 57.094 942.941 57.4 C 942.941 57.518 942.924 57.654 942.924 57.773 L 938.345 58.13 L 938.345 58.266 C 940.859 59.081 943.374 59.896 945.872 60.728 C 945.838 60.847 945.822 60.965 945.788 61.067 C 945.172 61.016 944.556 60.948 943.94 60.898 C 943.923 60.948 943.923 60.982 943.907 61.033 C 946.088 61.797 948.253 62.545 950.434 63.309 C 950.418 63.411 950.418 63.512 950.401 63.597 L 948.436 63.496 L 948.386 63.665 C 952.016 64.854 955.647 66.043 959.294 67.231 C 959.26 67.333 959.227 67.435 959.21 67.537 C 956.896 66.976 954.581 66.416 952.283 65.856 C 952.266 65.907 952.25 65.958 952.233 66.026 L 957.528 68.114 C 959.344 68.844 961.175 69.574 962.99 70.322 C 963.423 70.491 963.806 70.78 964.206 71.018 L 964.206 71.171 C 963.357 71.052 962.491 71.018 961.675 70.78 L 961.675 70.78 Z " fill="rgb(195,207,217)"/><path d=" M 1118.026 100.147 C 1115.462 99.383 1112.914 98.517 1110.366 97.702 C 1110.599 97.889 1110.849 98.008 1111.082 98.144 C 1113.264 99.349 1115.462 100.521 1117.61 101.76 C 1118.043 101.998 1118.343 102.474 1118.693 102.847 C 1118.626 102.932 1118.576 103.017 1118.509 103.102 C 1115.778 102.558 1113.43 100.928 1110.849 99.977 C 1108.235 99.027 1105.72 97.787 1103.172 96.666 C 1103.356 96.972 1103.622 97.142 1103.888 97.312 C 1105.487 98.33 1107.102 99.315 1108.684 100.368 C 1109.067 100.623 1109.317 101.064 1109.617 101.421 C 1109.55 101.523 1109.467 101.608 1109.4 101.709 C 1105.071 100.351 1101.191 97.906 1097.078 96.004 C 1097.894 96.632 1098.76 97.193 1099.609 97.77 C 1100.425 98.33 1101.241 98.908 1102.073 99.468 C 1102.023 99.587 1101.957 99.706 1101.907 99.808 C 1101.391 99.689 1100.858 99.655 1100.375 99.451 C 1099.126 98.908 1097.894 98.313 1096.661 97.736 C 1095.795 97.329 1094.946 96.938 1094.08 96.531 C 1094.979 97.634 1095.979 98.585 1096.944 99.553 C 1097.211 99.808 1097.477 100.079 1097.627 100.402 C 1097.827 100.827 1097.727 101.268 1097.144 101.166 C 1096.445 101.03 1095.695 100.894 1095.079 100.538 C 1093.98 99.91 1092.964 99.162 1091.949 98.415 C 1091.049 97.77 1090.2 97.057 1089.184 96.259 C 1089.284 96.666 1089.334 96.87 1089.384 97.057 C 1089.434 97.295 1089.517 97.515 1089.534 97.753 C 1089.584 98.517 1089.334 98.823 1088.635 98.585 C 1088.069 98.398 1087.519 98.025 1087.086 97.6 C 1086.303 96.836 1085.637 95.97 1084.805 95.036 L 1084.805 95.851 C 1084.838 97.227 1084.388 97.515 1083.189 96.819 C 1082.923 96.666 1082.657 96.446 1082.507 96.191 C 1081.541 94.51 1080.542 92.846 1080.142 90.91 C 1079.992 90.214 1079.859 89.518 1079.709 88.72 C 1079.176 88.991 1078.71 89.212 1078.244 89.467 C 1076.279 90.52 1074.613 92.184 1072.265 92.472 C 1071.216 92.591 1070.184 92.761 1069.135 92.897 C 1068.885 92.931 1068.618 92.914 1068.369 92.914 C 1067.669 92.931 1066.987 92.948 1066.287 92.982 C 1066.087 92.982 1065.871 92.965 1065.688 93.016 C 1064.772 93.355 1063.906 93.321 1063.106 92.659 C 1061.974 93.882 1060.775 93.355 1059.876 92.931 C 1059.043 93.338 1058.444 93.848 1057.794 93.899 C 1056.729 93.983 1057.012 92.829 1056.629 92.099 C 1056.346 92.591 1056.129 93.016 1055.879 93.406 C 1055.43 94.102 1054.214 94.391 1053.165 94.068 C 1052.366 93.831 1052.832 93.134 1052.715 92.659 C 1052.699 92.574 1052.699 92.472 1052.665 92.167 C 1051.816 93.389 1050.85 93.576 1049.718 92.982 L 1049.718 92.336 C 1050.068 90.587 1051.35 89.993 1052.865 89.603 C 1054.247 89.246 1055.679 88.923 1056.962 88.295 C 1059.193 87.191 1061.308 85.85 1063.456 84.593 C 1063.673 84.458 1063.856 84.271 1064.139 84.033 L 1061.025 84.033 C 1061.141 84.39 1061.241 84.695 1061.358 85.001 C 1061.275 85.052 1061.191 85.12 1061.125 85.171 C 1060.692 84.678 1060.026 84.237 1059.876 83.66 C 1059.576 82.505 1059.426 81.265 1059.443 80.06 C 1059.443 79.55 1059.959 78.973 1060.375 78.582 C 1061.108 77.886 1062.074 77.818 1063.04 77.869 C 1064.922 77.971 1066.803 78.09 1068.685 78.226 C 1069.834 78.311 1070.667 77.767 1071.216 76.8 C 1071.649 76.035 1071.982 75.237 1072.315 74.422 C 1073.248 72.147 1074.33 69.906 1075.03 67.545 C 1075.996 64.268 1076.612 60.889 1077.494 57.578 C 1078.31 54.504 1079.026 51.431 1079.193 48.256 C 1079.259 47.152 1079.326 46.065 1079.409 44.758 C 1080.725 46.863 1080.342 49.037 1080.508 51.142 C 1081.641 49.02 1081.674 46.694 1081.841 44.367 C 1081.924 44.401 1082.04 44.401 1082.14 44.401 C 1083.289 45.369 1083.156 46.711 1083.156 48.001 C 1083.156 48.986 1083.023 49.971 1083.139 51.041 C 1084.105 49.037 1085.054 47.05 1086.12 44.826 C 1086.237 45.301 1086.403 45.624 1086.353 45.912 C 1086.104 47.322 1085.837 48.731 1085.504 50.124 C 1085.271 51.125 1084.905 52.093 1084.588 53.078 C 1084.655 53.129 1084.721 53.163 1084.788 53.214 C 1085.138 52.823 1085.521 52.45 1085.804 52.025 C 1086.42 51.125 1086.97 50.192 1087.602 49.292 C 1087.736 49.105 1088.019 49.037 1088.235 48.918 C 1088.302 49.139 1088.435 49.359 1088.418 49.563 C 1088.302 50.531 1088.152 51.516 1088.002 52.484 C 1087.952 52.84 1087.852 53.197 1087.719 53.757 C 1088.035 53.486 1088.169 53.333 1088.335 53.231 C 1088.552 53.112 1088.835 52.908 1089.001 52.976 C 1089.184 53.044 1089.384 53.401 1089.367 53.605 C 1089.318 54.301 1089.218 55.014 1089.068 55.71 C 1088.968 56.135 1088.951 56.406 1089.168 56.848 C 1089.401 57.306 1089.168 58.053 1089.034 58.648 C 1088.951 58.987 1088.651 59.276 1088.368 59.734 C 1088.851 59.768 1089.251 59.802 1089.634 59.836 C 1090.45 59.921 1090.65 60.244 1090.317 60.991 C 1090.15 61.381 1090 61.772 1089.834 62.146 C 1091.416 63.232 1091.416 63.334 1089.601 64.964 C 1090 65.321 1090.45 65.643 1090.766 66.068 C 1090.949 66.323 1091.033 66.764 1090.966 67.07 C 1090.866 67.528 1090.9 67.817 1091.316 68.089 C 1091.532 68.224 1091.699 68.496 1091.965 68.785 C 1091.549 68.972 1091.249 69.09 1090.9 69.243 C 1091.066 69.6 1091.299 69.956 1091.432 70.347 C 1091.549 70.738 1091.582 71.145 1091.649 71.604 C 1091.249 71.654 1090.983 71.705 1090.7 71.739 C 1090.716 73.251 1090.716 73.251 1089.601 73.624 C 1089.517 74.303 1090.45 75.305 1089.051 75.611 L 1089.051 76.918 C 1089.051 77.071 1089.084 77.343 1089.001 77.377 C 1088.218 77.801 1088.552 78.481 1088.568 79.109 C 1088.585 79.72 1088.218 79.992 1087.652 79.788 C 1087.286 79.652 1086.953 79.431 1086.503 79.194 C 1086.636 79.703 1086.736 80.128 1086.886 80.535 C 1087.086 81.112 1087.136 81.758 1086.587 82.029 C 1086.17 82.233 1085.571 82.063 1085.054 82.012 C 1084.888 81.995 1084.738 81.86 1084.605 81.775 C 1084.572 82.199 1084.472 82.607 1084.538 82.98 C 1084.588 83.235 1084.838 83.592 1085.071 83.66 C 1086.104 83.982 1087.153 84.322 1088.235 84.492 C 1089.934 84.729 1091.666 84.831 1093.381 85.001 C 1093.497 85.018 1093.614 85.086 1093.864 85.171 C 1093.414 85.391 1093.081 85.544 1092.531 85.799 C 1094.929 86.139 1097.111 86.461 1099.292 86.767 C 1099.292 86.886 1099.276 87.022 1099.276 87.14 L 1094.696 87.497 L 1094.696 87.633 C 1097.211 88.448 1099.725 89.263 1102.223 90.095 C 1102.19 90.214 1102.173 90.333 1102.14 90.435 C 1101.524 90.384 1100.908 90.316 1100.292 90.265 C 1100.275 90.316 1100.275 90.35 1100.258 90.401 C 1102.44 91.165 1104.605 91.912 1106.786 92.676 C 1106.769 92.778 1106.769 92.88 1106.753 92.965 L 1104.788 92.863 L 1104.738 93.033 C 1108.368 94.221 1111.998 95.41 1115.645 96.598 C 1115.612 96.7 1115.579 96.802 1115.562 96.904 C 1113.247 96.344 1110.932 95.783 1108.634 95.223 C 1108.618 95.274 1108.601 95.325 1108.584 95.393 L 1113.88 97.481 C 1115.695 98.212 1117.527 98.942 1119.342 99.689 C 1119.775 99.859 1120.158 100.147 1120.558 100.385 L 1120.558 100.538 C 1119.708 100.419 1118.842 100.385 1118.026 100.147 L 1118.026 100.147 Z " fill="rgb(195,207,217)"/><path d=" M 1188.866 85.045 C 1186.302 84.281 1183.754 83.415 1181.206 82.6 C 1181.439 82.787 1181.689 82.906 1181.922 83.042 C 1184.104 84.247 1186.302 85.419 1188.45 86.659 C 1188.883 86.896 1189.183 87.372 1189.532 87.745 C 1189.466 87.83 1189.416 87.915 1189.349 88 C 1186.618 87.457 1184.27 85.827 1181.689 84.876 C 1179.075 83.925 1176.56 82.685 1174.012 81.564 C 1174.195 81.87 1174.462 82.04 1174.728 82.21 C 1176.327 83.229 1177.942 84.213 1179.524 85.266 C 1179.907 85.521 1180.157 85.962 1180.457 86.319 C 1180.39 86.421 1180.307 86.506 1180.24 86.608 C 1175.911 85.249 1172.031 82.804 1167.917 80.902 C 1168.733 81.531 1169.599 82.091 1170.449 82.668 C 1171.265 83.229 1172.081 83.806 1172.913 84.366 C 1172.863 84.485 1172.797 84.604 1172.747 84.706 C 1172.23 84.587 1171.698 84.553 1171.215 84.349 C 1169.966 83.806 1168.733 83.212 1167.501 82.634 C 1166.635 82.227 1165.786 81.836 1164.92 81.429 C 1165.819 82.532 1166.818 83.483 1167.784 84.451 C 1168.051 84.706 1168.317 84.978 1168.467 85.3 C 1168.667 85.725 1168.567 86.166 1167.984 86.064 C 1167.285 85.928 1166.535 85.793 1165.919 85.436 C 1164.82 84.808 1163.804 84.061 1162.788 83.313 C 1161.889 82.668 1161.04 81.955 1160.024 81.157 C 1160.124 81.564 1160.174 81.768 1160.224 81.955 C 1160.274 82.193 1160.357 82.414 1160.374 82.651 C 1160.424 83.415 1160.174 83.721 1159.475 83.483 C 1158.908 83.296 1158.359 82.923 1157.926 82.498 C 1157.143 81.734 1156.477 80.868 1155.644 79.934 L 1155.644 80.749 C 1155.678 82.125 1155.228 82.414 1154.029 81.717 C 1153.763 81.564 1153.496 81.344 1153.346 81.089 C 1152.381 79.408 1151.381 77.744 1150.982 75.808 C 1150.832 75.112 1150.699 74.416 1150.549 73.618 C 1150.016 73.889 1149.55 74.11 1149.083 74.365 C 1147.118 75.418 1145.453 77.082 1143.105 77.37 C 1142.056 77.489 1141.024 77.659 1139.974 77.795 C 1139.725 77.829 1139.458 77.812 1139.208 77.812 C 1138.509 77.829 1137.826 77.846 1137.127 77.88 C 1136.927 77.88 1136.711 77.863 1136.527 77.914 C 1135.612 78.253 1134.746 78.219 1133.946 77.557 C 1132.814 78.78 1131.615 78.253 1130.716 77.829 C 1129.883 78.236 1129.284 78.746 1128.634 78.797 C 1127.568 78.882 1127.851 77.727 1127.468 76.997 C 1127.185 77.489 1126.969 77.914 1126.719 78.304 C 1126.269 79 1125.054 79.289 1124.005 78.967 C 1123.205 78.729 1123.672 78.033 1123.555 77.557 C 1123.538 77.472 1123.538 77.37 1123.505 77.065 C 1122.656 78.287 1121.69 78.474 1120.558 77.88 L 1120.558 77.235 C 1120.907 75.486 1122.19 74.891 1123.705 74.501 C 1125.087 74.144 1126.519 73.822 1127.801 73.193 C 1130.033 72.09 1132.148 70.748 1134.296 69.492 C 1134.512 69.356 1134.696 69.169 1134.979 68.931 L 1131.865 68.931 C 1131.981 69.288 1132.081 69.593 1132.198 69.899 C 1132.114 69.95 1132.031 70.018 1131.965 70.069 C 1131.532 69.576 1130.866 69.135 1130.716 68.558 C 1130.416 67.403 1130.266 66.163 1130.283 64.958 C 1130.283 64.448 1130.799 63.871 1131.215 63.481 C 1131.948 62.784 1132.914 62.716 1133.88 62.767 C 1135.761 62.869 1137.643 62.988 1139.525 63.124 C 1140.674 63.209 1141.507 62.666 1142.056 61.698 C 1142.489 60.934 1142.822 60.135 1143.155 59.32 C 1144.088 57.045 1145.17 54.804 1145.869 52.443 C 1146.835 49.166 1147.451 45.787 1148.334 42.476 C 1149.15 39.403 1149.866 36.329 1150.033 33.154 C 1150.099 32.05 1150.166 30.963 1150.249 29.656 C 1151.565 31.762 1151.182 33.935 1151.348 36.041 C 1152.481 33.918 1152.514 31.592 1152.68 29.265 C 1152.764 29.299 1152.88 29.299 1152.98 29.299 C 1154.129 30.267 1153.996 31.609 1153.996 32.899 C 1153.996 33.884 1153.863 34.869 1153.979 35.939 C 1154.945 33.935 1155.894 31.948 1156.96 29.724 C 1157.077 30.199 1157.243 30.522 1157.193 30.811 C 1156.943 32.22 1156.677 33.629 1156.344 35.022 C 1156.111 36.024 1155.744 36.991 1155.428 37.976 C 1155.495 38.027 1155.561 38.061 1155.628 38.112 C 1155.978 37.722 1156.361 37.348 1156.644 36.924 C 1157.26 36.024 1157.809 35.09 1158.442 34.19 C 1158.575 34.003 1158.858 33.935 1159.075 33.816 C 1159.142 34.037 1159.275 34.258 1159.258 34.461 C 1159.142 35.429 1158.992 36.414 1158.842 37.382 C 1158.792 37.739 1158.692 38.095 1158.559 38.655 C 1158.875 38.384 1159.008 38.231 1159.175 38.129 C 1159.391 38.01 1159.674 37.806 1159.841 37.874 C 1160.024 37.942 1160.224 38.299 1160.207 38.503 C 1160.157 39.199 1160.057 39.912 1159.908 40.608 C 1159.808 41.033 1159.791 41.304 1160.007 41.746 C 1160.241 42.204 1160.007 42.951 1159.874 43.546 C 1159.791 43.885 1159.491 44.174 1159.208 44.633 C 1159.691 44.666 1160.091 44.7 1160.474 44.734 C 1161.29 44.819 1161.49 45.142 1161.156 45.889 C 1160.99 46.28 1160.84 46.67 1160.674 47.044 C 1162.256 48.13 1162.256 48.232 1160.44 49.862 C 1160.84 50.219 1161.29 50.542 1161.606 50.966 C 1161.789 51.221 1161.873 51.662 1161.806 51.968 C 1161.706 52.426 1161.739 52.715 1162.156 52.987 C 1162.372 53.123 1162.539 53.394 1162.805 53.683 C 1162.389 53.87 1162.089 53.989 1161.739 54.141 C 1161.906 54.498 1162.139 54.855 1162.272 55.245 C 1162.389 55.636 1162.422 56.043 1162.489 56.502 C 1162.089 56.553 1161.823 56.604 1161.539 56.638 C 1161.556 58.149 1161.556 58.149 1160.44 58.522 C 1160.357 59.202 1161.29 60.203 1159.891 60.509 L 1159.891 61.817 C 1159.891 61.969 1159.924 62.241 1159.841 62.275 C 1159.058 62.699 1159.391 63.379 1159.408 64.007 C 1159.425 64.618 1159.058 64.89 1158.492 64.686 C 1158.126 64.55 1157.793 64.33 1157.343 64.092 C 1157.476 64.601 1157.576 65.026 1157.726 65.433 C 1157.926 66.011 1157.976 66.656 1157.426 66.928 C 1157.01 67.131 1156.411 66.962 1155.894 66.911 C 1155.728 66.894 1155.578 66.758 1155.445 66.673 C 1155.411 67.097 1155.311 67.505 1155.378 67.878 C 1155.428 68.133 1155.678 68.49 1155.911 68.558 C 1156.943 68.88 1157.992 69.22 1159.075 69.39 C 1160.773 69.627 1162.505 69.729 1164.221 69.899 C 1164.337 69.916 1164.454 69.984 1164.703 70.069 C 1164.254 70.29 1163.921 70.442 1163.371 70.697 C 1165.769 71.037 1167.951 71.359 1170.132 71.665 C 1170.132 71.784 1170.116 71.92 1170.116 72.039 L 1165.536 72.395 L 1165.536 72.531 C 1168.051 73.346 1170.565 74.161 1173.063 74.993 C 1173.03 75.112 1173.013 75.231 1172.98 75.333 C 1172.364 75.282 1171.747 75.214 1171.131 75.163 C 1171.115 75.214 1171.115 75.248 1171.098 75.299 C 1173.28 76.063 1175.444 76.81 1177.626 77.574 C 1177.609 77.676 1177.609 77.778 1177.593 77.863 L 1175.628 77.761 L 1175.578 77.931 C 1179.208 79.119 1182.838 80.308 1186.485 81.497 C 1186.452 81.598 1186.418 81.7 1186.402 81.802 C 1184.087 81.242 1181.772 80.682 1179.474 80.121 C 1179.458 80.172 1179.441 80.223 1179.424 80.291 L 1184.72 82.38 C 1186.535 83.11 1188.367 83.84 1190.182 84.587 C 1190.615 84.757 1190.998 85.045 1191.397 85.283 L 1191.397 85.436 C 1190.548 85.317 1189.682 85.283 1188.866 85.045 L 1188.866 85.045 Z " fill="rgb(195,207,217)"/><path d=" M 111.042 115.5 C 85.541 115.5 62.302 130.587 51.835 153.901 C 51.245 155.201 51.199 156.683 51.708 158.016 C 52.216 159.35 53.236 160.426 54.542 161.003 C 57.275 162.234 60.488 161.024 61.731 158.297 C 70.454 138.866 89.79 126.326 111.042 126.326 C 140.887 126.326 165.174 150.613 165.174 180.458 C 165.174 210.304 140.887 234.59 111.042 234.59 C 89.79 234.59 70.454 222.05 61.731 202.617 C 60.505 199.891 57.259 198.695 54.542 199.91 C 53.235 200.488 52.214 201.564 51.705 202.899 C 51.197 204.234 51.244 205.717 51.835 207.018 C 62.302 230.327 85.541 245.416 111.042 245.416 C 146.861 245.416 176 216.277 176 180.458 C 176 144.639 146.861 115.5 111.042 115.5 Z  M 113.665 156.099 C 112.279 156.099 110.915 156.648 109.856 157.706 C 108.842 158.713 108.271 160.083 108.271 161.512 C 108.271 162.941 108.842 164.311 109.856 165.317 L 119.5 175.045 L 51.413 175.045 C 48.42 175.045 46 177.467 46 180.458 C 46 183.449 48.42 185.871 51.413 185.871 L 119.5 185.871 L 109.856 195.599 C 108.842 196.605 108.271 197.975 108.271 199.404 C 108.271 200.833 108.842 202.203 109.856 203.21 C 110.863 204.225 112.233 204.797 113.663 204.797 C 115.093 204.797 116.464 204.225 117.47 203.21 L 136.416 184.264 C 137.431 183.257 138.002 181.887 138.002 180.458 C 138.002 179.029 137.431 177.659 136.416 176.653 L 117.47 157.706 C 116.467 156.685 115.097 156.106 113.665 156.099 Z " fill="rgb(235,235,235)"/><g clip-path="url(#_clipPath_B9EELFZFTBOMy6i3aPlUfK7Eq4AesH7l)"><text transform="matrix(1,0,0,1,67.469,584.012)" style="font-family:'Open Sans';font-weight:400;font-size:77px;font-style:normal;fill:#ebebeb;stroke:none;">Log-In</text></g><defs><clipPath id="_clipPath_B9EELFZFTBOMy6i3aPlUfK7Eq4AesH7l"><rect x="0" y="0" width="273.25" height="124.932" transform="matrix(1,0,0,1,42.926,491.674)"/></clipPath></defs></g></svg>